<svg xmlns="http://www.w3.org/2000/svg" viewBox="0 7 75 75">
  <circle cx="37.5" cy="44.5" r="36" fill="#002659"/>
  <path d="M44.42 27.73c.06.09-.02.21-.13.19l-3.8-.68v9.19c-.03 2.61-.33 4.77 2.01 6.83a5.77 5.77 0 0 0 7.76-.14c1-.93 1.58-2.03 1.78-3.32l.04-12.23c0-5.71-4.63-10.35-10.35-10.35h-3.75l6.44 10.51Z" fill="#8dc63f"/>
  <path d="M38.68 47.15c-2.38-2.22-3.64-5.08-3.64-8.27V27.24l-3.8.68c-.11.02-.18-.1-.13-.19l6.44-10.51h-3.7c-5.71 0-10.35 4.63-10.35 10.35l.04 15.02c0 3.2.81 5.62 2.52 7.21 1.71 1.59 4.13 2.47 5.5 3.51 1.84 1.39 3.8 2.74 3.8 6.42v10.06c0 .39-.05.78-.14 1.15l-.27 1.1c-.14.58.26 1.15.86 1.22 0 0 1 .12 1.97.12s1.97-.12 1.97-.12c.59-.06 1-.64.86-1.22l-.27-1.1c-.09-.38-.14-.77-.14-1.15V59.73c0-3.68 1.96-5.03 3.8-6.42 1.37-1.04 3.79-1.92 5.5-3.51.06-.05.11-.11.17-.17-3.75 1.19-7.97.34-11.01-2.48Z" fill="#ffffff"/>
</svg>
